<svg width="141" height="46" viewBox="0 0 141 46" fill="none" xmlns="http://www.w3.org/2000/svg">
<path opacity="0.7" fill-rule="evenodd" clip-rule="evenodd" d="M3.9775 22.9998H20.3867L36.7959 0H20.3867L3.9775 22.9998ZM36.7945 46H20.3853L3.97607 23.0003H20.3853L36.7945 46Z" fill="#9C9C9C"/>
<path d="M16.4101 22.9998H32.8193L16.4101 0H0.000939152L16.4101 22.9998Z" fill="#9C9C9C"/>
<path d="M16.4092 45.9998H0L16.4092 23H32.8184L16.4092 45.9998Z" fill="#9C9C9C"/>
<path d="M44.918 22.7845C44.918 20.7079 45.4192 18.8531 46.4217 17.2201C47.446 15.5669 48.8299 14.2867 50.5734 13.3794C52.3387 12.452 54.3111 11.9883 56.4904 11.9883C59.0403 11.9883 61.2742 12.5931 63.192 13.8028C65.1098 15.0124 66.4502 16.6858 67.2129 18.8229H61.9498C61.4267 17.8148 60.6857 17.0588 59.7268 16.5548C58.7897 16.0507 57.7 15.7987 56.4577 15.7987C55.1283 15.7987 53.9406 16.0911 52.8945 16.6757C51.8702 17.2402 51.0638 18.0467 50.4754 19.095C49.9087 20.1434 49.6254 21.3732 49.6254 22.7845C49.6254 24.1756 49.9087 25.4054 50.4754 26.474C51.0638 27.5223 51.8702 28.3388 52.8945 28.9235C53.9406 29.488 55.1283 29.7703 56.4577 29.7703C57.7 29.7703 58.7897 29.5183 59.7268 29.0142C60.6857 28.4901 61.4267 27.7239 61.9498 26.7159H67.2129C66.4502 28.8731 65.1098 30.5565 63.192 31.7662C61.2959 32.9557 59.0621 33.5505 56.4904 33.5505C54.3111 33.5505 52.3387 33.0968 50.5734 32.1896C48.8299 31.2622 47.446 29.982 46.4217 28.3489C45.4192 26.7159 44.918 24.8611 44.918 22.7845Z" fill="#9C9C9C"/>
<path d="M77.8563 33.6412C76.1128 33.6412 74.5436 33.2884 73.1488 32.5827C71.754 31.8569 70.6535 30.8388 69.8471 29.5283C69.0625 28.2179 68.6702 26.7058 68.6702 24.9921C68.6702 23.2784 69.0734 21.7664 69.8798 20.4559C70.7079 19.1454 71.8303 18.1374 73.2469 17.4318C74.6635 16.706 76.2435 16.3431 77.987 16.3431C79.7305 16.3431 81.3106 16.706 82.7272 17.4318C84.1438 18.1374 85.2552 19.1454 86.0616 20.4559C86.8898 21.7664 87.3038 23.2784 87.3038 24.9921C87.3038 26.7058 86.8789 28.2179 86.0289 29.5283C85.2008 30.8388 84.0675 31.8569 82.6291 32.5827C81.2125 33.2884 79.6216 33.6412 77.8563 33.6412ZM77.8563 29.9517C78.6844 29.9517 79.4581 29.7703 80.1773 29.4074C80.9183 29.0243 81.5067 28.4598 81.9426 27.7139C82.3785 26.9679 82.5964 26.0607 82.5964 24.9921C82.5964 23.3994 82.1387 22.1797 81.2234 21.3329C80.3299 20.466 79.2293 20.0325 77.9217 20.0325C76.614 20.0325 75.5134 20.466 74.6199 21.3329C73.7482 22.1797 73.3123 23.3994 73.3123 24.9921C73.3123 26.5848 73.7373 27.8147 74.5872 28.6816C75.459 29.5283 76.5486 29.9517 77.8563 29.9517Z" fill="#9C9C9C"/>
<path d="M93.9301 30.0122H98.9254V33.369H89.3534V10.9902H93.9301V30.0122Z" fill="#9C9C9C"/>
<path d="M100.145 24.9315C100.145 23.238 100.505 21.736 101.224 20.4256C101.965 19.1151 102.957 18.1071 104.199 17.4014C105.463 16.6958 106.869 16.343 108.416 16.343C109.767 16.343 110.944 16.595 111.947 17.099C112.971 17.603 113.788 18.2381 114.399 19.0042V16.6151H119.008V33.3689H114.399V30.9193C113.81 31.7056 112.993 32.3609 111.947 32.885C110.922 33.3891 109.735 33.6411 108.383 33.6411C106.858 33.6411 105.463 33.2782 104.199 32.5524C102.957 31.8266 101.965 30.8085 101.224 29.498C100.505 28.1674 100.145 26.6452 100.145 24.9315ZM114.399 24.992C114.399 23.9638 114.181 23.0868 113.745 22.361C113.309 21.6151 112.72 21.0506 111.979 20.6675C111.238 20.2643 110.443 20.0627 109.593 20.0627C108.743 20.0627 107.958 20.2542 107.239 20.6373C106.52 21.0203 105.932 21.5848 105.474 22.3308C105.038 23.0566 104.82 23.9235 104.82 24.9315C104.82 25.9396 105.038 26.8267 105.474 27.5928C105.932 28.3387 106.52 28.9133 107.239 29.3165C107.98 29.7198 108.765 29.9214 109.593 29.9214C110.443 29.9214 111.238 29.7298 111.979 29.3468C112.72 28.9436 113.309 28.3791 113.745 27.6533C114.181 26.9073 114.399 26.0202 114.399 24.992Z" fill="#9C9C9C"/>
<path d="M126.747 19.0647C127.335 18.2583 128.142 17.603 129.166 17.099C130.212 16.595 131.4 16.343 132.729 16.343C134.277 16.343 135.671 16.6958 136.914 17.4014C138.178 18.1071 139.169 19.1151 139.888 20.4256C140.629 21.7159 141 23.2179 141 24.9315C141 26.6452 140.629 28.1674 139.888 29.498C139.169 30.8085 138.178 31.8266 136.914 32.5524C135.671 33.2782 134.277 33.6411 132.729 33.6411C131.378 33.6411 130.19 33.3991 129.166 32.9153C128.163 32.4113 127.357 31.7661 126.747 30.9798V33.3689H122.17V10.9902H126.747V19.0647ZM136.325 24.9315C136.325 23.9235 136.096 23.0566 135.639 22.3308C135.203 21.5848 134.614 21.0203 133.873 20.6373C133.154 20.2542 132.37 20.0627 131.52 20.0627C130.692 20.0627 129.907 20.2643 129.166 20.6675C128.447 21.0506 127.858 21.6151 127.401 22.361C126.965 23.107 126.747 23.984 126.747 24.992C126.747 26.0001 126.965 26.8771 127.401 27.623C127.858 28.369 128.447 28.9436 129.166 29.3468C129.907 29.7298 130.692 29.9214 131.52 29.9214C132.37 29.9214 133.154 29.7198 133.873 29.3165C134.614 28.9133 135.203 28.3387 135.639 27.5928C136.096 26.8468 136.325 25.9597 136.325 24.9315Z" fill="#9C9C9C"/>
</svg>
