<svg width="28" height="28" viewBox="0 0 28 28" fill="none" xmlns="http://www.w3.org/2000/svg">
<path d="M5.81341 8.39659C7.22321 8.39659 8.36608 7.25372 8.36608 5.84393C8.36608 4.43413 7.22321 3.29126 5.81341 3.29126C4.40361 3.29126 3.26074 4.43413 3.26074 5.84393C3.26074 7.25372 4.40361 8.39659 5.81341 8.39659Z" fill="#9C9C9C"/>
<path d="M10.7765 10.3307V24.4929H15.1737V17.4894C15.1737 15.6414 15.5213 13.8517 17.8127 13.8517C20.0725 13.8517 20.1005 15.9645 20.1005 17.606V24.494H24.5V16.7275C24.5 12.9125 23.6787 9.98071 19.2197 9.98071C17.0788 9.98071 15.6438 11.1555 15.057 12.2674H14.9975V10.3307H10.7765ZM3.61084 10.3307H8.01501V24.4929H3.61084V10.3307Z" fill="#9C9C9C"/>
</svg>
