<svg width="172" height="54" viewBox="0 0 172 54" fill="none" xmlns="http://www.w3.org/2000/svg">
<path d="M19.584 14.872V18.94H12.888V40H7.848V18.94H1.152V14.872H19.584ZM34.4933 19.768C36.0053 19.768 37.3493 20.104 38.5253 20.776C39.7013 21.424 40.6133 22.396 41.2613 23.692C41.9333 24.964 42.2693 26.5 42.2693 28.3V40H37.2293V28.984C37.2293 27.4 36.8333 26.188 36.0413 25.348C35.2493 24.484 34.1693 24.052 32.8013 24.052C31.4093 24.052 30.3053 24.484 29.4893 25.348C28.6973 26.188 28.3013 27.4 28.3013 28.984V40H23.2613V13.36H28.3013V22.54C28.9493 21.676 29.8133 21.004 30.8933 20.524C31.9733 20.02 33.1733 19.768 34.4933 19.768ZM49.6181 17.68C48.7301 17.68 47.9861 17.404 47.3861 16.852C46.8101 16.276 46.5221 15.568 46.5221 14.728C46.5221 13.888 46.8101 13.192 47.3861 12.64C47.9861 12.064 48.7301 11.776 49.6181 11.776C50.5061 11.776 51.2381 12.064 51.8141 12.64C52.4141 13.192 52.7141 13.888 52.7141 14.728C52.7141 15.568 52.4141 16.276 51.8141 16.852C51.2381 17.404 50.5061 17.68 49.6181 17.68ZM52.1021 20.056V40H47.0621V20.056H52.1021ZM55.7857 29.956C55.7857 27.94 56.1817 26.152 56.9737 24.592C57.7897 23.032 58.8817 21.832 60.2497 20.992C61.6417 20.152 63.1897 19.732 64.8937 19.732C66.3817 19.732 67.6777 20.032 68.7817 20.632C69.9097 21.232 70.8097 21.988 71.4817 22.9V20.056H76.5577V40H71.4817V37.084C70.8337 38.02 69.9337 38.8 68.7817 39.424C67.6537 40.024 66.3457 40.324 64.8577 40.324C63.1777 40.324 61.6417 39.892 60.2497 39.028C58.8817 38.164 57.7897 36.952 56.9737 35.392C56.1817 33.808 55.7857 31.996 55.7857 29.956ZM71.4817 30.028C71.4817 28.804 71.2417 27.76 70.7617 26.896C70.2817 26.008 69.6337 25.336 68.8177 24.88C68.0017 24.4 67.1257 24.16 66.1897 24.16C65.2537 24.16 64.3897 24.388 63.5977 24.844C62.8057 25.3 62.1577 25.972 61.6537 26.86C61.1737 27.724 60.9337 28.756 60.9337 29.956C60.9337 31.156 61.1737 32.212 61.6537 33.124C62.1577 34.012 62.8057 34.696 63.5977 35.176C64.4137 35.656 65.2777 35.896 66.1897 35.896C67.1257 35.896 68.0017 35.668 68.8177 35.212C69.6337 34.732 70.2817 34.06 70.7617 33.196C71.2417 32.308 71.4817 31.252 71.4817 30.028ZM89.2921 19.732C90.7801 19.732 92.0881 20.032 93.2161 20.632C94.3441 21.208 95.2321 21.964 95.8801 22.9V20.056H100.956V40.144C100.956 41.992 100.584 43.636 99.8401 45.076C99.0961 46.54 97.9801 47.692 96.4921 48.532C95.0041 49.396 93.2041 49.828 91.0921 49.828C88.2601 49.828 85.9321 49.168 84.1081 47.848C82.3081 46.528 81.2881 44.728 81.0481 42.448H86.0521C86.3161 43.36 86.8801 44.08 87.7441 44.608C88.6321 45.16 89.7001 45.436 90.9481 45.436C92.4121 45.436 93.6001 44.992 94.5121 44.104C95.4241 43.24 95.8801 41.92 95.8801 40.144V37.048C95.2321 37.984 94.3321 38.764 93.1801 39.388C92.0521 40.012 90.7561 40.324 89.2921 40.324C87.6121 40.324 86.0761 39.892 84.6841 39.028C83.2921 38.164 82.1881 36.952 81.3721 35.392C80.5801 33.808 80.1841 31.996 80.1841 29.956C80.1841 27.94 80.5801 26.152 81.3721 24.592C82.1881 23.032 83.2801 21.832 84.6481 20.992C86.0401 20.152 87.5881 19.732 89.2921 19.732ZM95.8801 30.028C95.8801 28.804 95.6401 27.76 95.1601 26.896C94.6801 26.008 94.0321 25.336 93.2161 24.88C92.4001 24.4 91.5241 24.16 90.5881 24.16C89.6521 24.16 88.7881 24.388 87.9961 24.844C87.2041 25.3 86.5561 25.972 86.0521 26.86C85.5721 27.724 85.3321 28.756 85.3321 29.956C85.3321 31.156 85.5721 32.212 86.0521 33.124C86.5561 34.012 87.2041 34.696 87.9961 35.176C88.8121 35.656 89.6761 35.896 90.5881 35.896C91.5241 35.896 92.4001 35.668 93.2161 35.212C94.0321 34.732 94.6801 34.06 95.1601 33.196C95.6401 32.308 95.8801 31.252 95.8801 30.028ZM114.735 40.324C112.815 40.324 111.087 39.904 109.551 39.064C108.015 38.2 106.803 36.988 105.915 35.428C105.051 33.868 104.619 32.068 104.619 30.028C104.619 27.988 105.063 26.188 105.951 24.628C106.863 23.068 108.099 21.868 109.659 21.028C111.219 20.164 112.959 19.732 114.879 19.732C116.799 19.732 118.539 20.164 120.099 21.028C121.659 21.868 122.883 23.068 123.771 24.628C124.683 26.188 125.139 27.988 125.139 30.028C125.139 32.068 124.671 33.868 123.735 35.428C122.823 36.988 121.575 38.2 119.991 39.064C118.431 39.904 116.679 40.324 114.735 40.324ZM114.735 35.932C115.647 35.932 116.499 35.716 117.291 35.284C118.107 34.828 118.755 34.156 119.235 33.268C119.715 32.38 119.955 31.3 119.955 30.028C119.955 28.132 119.451 26.68 118.443 25.672C117.459 24.64 116.247 24.124 114.807 24.124C113.367 24.124 112.155 24.64 111.171 25.672C110.211 26.68 109.731 28.132 109.731 30.028C109.731 31.924 110.199 33.388 111.135 34.42C112.095 35.428 113.295 35.932 114.735 35.932Z" fill="#F7F7F7"/>
<path d="M141.466 24.46C142.426 24.38 143.146 24.12 143.626 23.68C144.126 23.24 144.376 22.65 144.376 21.91C144.376 21.07 144.286 19.86 144.106 18.28C143.906 16.4 143.806 15.03 143.806 14.17C143.806 12.61 144.266 11.4 145.186 10.54C146.126 9.66 147.366 9.22 148.906 9.22H150.976V12.76H149.716C148.476 12.76 147.856 13.35 147.856 14.53C147.856 15.09 147.936 16.21 148.096 17.89C148.116 18.09 148.166 18.66 148.246 19.6C148.326 20.52 148.366 21.34 148.366 22.06C148.366 23.12 148.106 24 147.586 24.7C147.066 25.4 146.276 25.85 145.216 26.05V26.11C146.276 26.33 147.066 26.79 147.586 27.49C148.106 28.17 148.366 29.05 148.366 30.13C148.366 30.81 148.326 31.62 148.246 32.56C148.166 33.48 148.116 34.06 148.096 34.3C147.936 35.98 147.856 37.09 147.856 37.63C147.856 38.25 148.006 38.7 148.306 38.98C148.606 39.26 149.076 39.4 149.716 39.4H150.976V42.97H148.906C147.366 42.97 146.126 42.53 145.186 41.65C144.266 40.79 143.806 39.58 143.806 38.02C143.806 37.14 143.906 35.76 144.106 33.88C144.286 32.3 144.376 31.1 144.376 30.28C144.376 29.54 144.126 28.95 143.626 28.51C143.146 28.07 142.426 27.81 141.466 27.73V24.46ZM165.34 27.73C164.38 27.81 163.65 28.07 163.15 28.51C162.67 28.95 162.43 29.54 162.43 30.28C162.43 31.1 162.52 32.3 162.7 33.88C162.9 35.76 163 37.14 163 38.02C163 39.58 162.53 40.79 161.59 41.65C160.67 42.53 159.44 42.97 157.9 42.97H155.83V39.4H157.09C157.73 39.4 158.2 39.26 158.5 38.98C158.8 38.7 158.95 38.25 158.95 37.63C158.95 37.09 158.87 35.98 158.71 34.3C158.69 34.06 158.64 33.48 158.56 32.56C158.48 31.62 158.44 30.81 158.44 30.13C158.44 29.05 158.7 28.17 159.22 27.49C159.74 26.79 160.53 26.33 161.59 26.11V26.05C160.53 25.85 159.74 25.4 159.22 24.7C158.7 24 158.44 23.12 158.44 22.06C158.44 21.34 158.48 20.52 158.56 19.6C158.64 18.66 158.69 18.09 158.71 17.89C158.87 16.21 158.95 15.09 158.95 14.53C158.95 13.35 158.33 12.76 157.09 12.76H155.83V9.22H157.9C159.44 9.22 160.67 9.66 161.59 10.54C162.53 11.4 163 12.61 163 14.17C163 15.03 162.9 16.4 162.7 18.28C162.52 19.86 162.43 21.07 162.43 21.91C162.43 22.65 162.67 23.24 163.15 23.68C163.65 24.12 164.38 24.38 165.34 24.46V27.73Z" fill="#B08968"/>
</svg>
