<svg width="141" height="39" viewBox="0 0 141 39" fill="none" xmlns="http://www.w3.org/2000/svg">
<path d="M79.4774 29.1922V6.41187H83.6049V29.1922H79.4774Z" fill="#9C9C9C"/>
<path d="M44.5381 7.04203L53.2658 29.1922H56.6687L65.491 7.04203H60.9223L55.0187 22.5936L49.1698 7.04203H44.5381Z" fill="#9C9C9C"/>
<path fill-rule="evenodd" clip-rule="evenodd" d="M66.1073 28.4675C67.3467 29.1607 68.733 29.5073 70.2664 29.5073C71.7998 29.5073 73.1757 29.1607 74.394 28.4675C75.6333 27.7533 76.61 26.7976 77.3242 25.6003C78.0384 24.382 78.3955 23.0271 78.3955 21.5357C78.3955 20.0444 78.0384 18.7105 77.3242 17.5342C76.61 16.3369 75.6333 15.3917 74.394 14.6985C73.1757 13.9843 71.7893 13.6272 70.2349 13.6272C68.7225 13.6272 67.3467 13.9843 66.1073 14.6985C64.868 15.3917 63.8913 16.3369 63.1771 17.5342C62.4629 18.7105 62.1058 20.0444 62.1058 21.5357C62.1058 23.0271 62.4629 24.382 63.1771 25.6003C63.9123 26.7976 64.889 27.7533 66.1073 28.4675ZM72.2829 25.1592C71.6948 25.4953 71.0121 25.6633 70.2349 25.6633C69.4787 25.6633 68.8065 25.4953 68.2184 25.1592C67.6302 24.8021 67.1681 24.319 66.832 23.7098C66.4959 23.0796 66.3279 22.3655 66.3279 21.5673C66.3279 20.7691 66.4959 20.0654 66.832 19.4562C67.1681 18.8471 67.6302 18.3744 68.2184 18.0384C68.8065 17.6813 69.4787 17.5027 70.2349 17.5027C71.0121 17.5027 71.6948 17.6813 72.2829 18.0384C72.8711 18.3744 73.3332 18.8471 73.6693 19.4562C74.0054 20.0654 74.1734 20.7691 74.1734 21.5673C74.1734 22.3655 74.0054 23.0796 73.6693 23.7098C73.3542 24.319 72.8921 24.8021 72.2829 25.1592Z" fill="#9C9C9C"/>
<path d="M88.5854 28.6566C89.6357 29.2237 90.833 29.5073 92.1773 29.5073C93.5217 29.5073 94.7085 29.2342 95.7378 28.6881C96.788 28.1209 97.5967 27.3332 98.1639 26.325C98.752 25.3167 99.0461 24.1404 99.0461 22.7961V13.9738H94.9185V22.7015C94.9185 23.6468 94.677 24.382 94.1939 24.9071C93.7107 25.4322 93.0386 25.6948 92.1773 25.6948C91.6102 25.6948 91.1166 25.5793 90.6965 25.3482C90.2763 25.1172 89.9613 24.7811 89.7512 24.34C89.5412 23.8778 89.4361 23.3317 89.4361 22.7015V13.9738H85.2771V22.7961C85.2771 24.1194 85.5711 25.2852 86.1593 26.2935C86.7474 27.3017 87.5561 28.0894 88.5854 28.6566Z" fill="#9C9C9C"/>
<path d="M100.758 29.1922V13.9738H104.885V15.2942C105.254 14.9337 105.675 14.6301 106.146 14.3834C107.028 13.9003 108.025 13.6587 109.139 13.6587C110.189 13.6587 111.145 13.9003 112.006 14.3834C112.728 14.7707 113.324 15.2981 113.795 15.9656C114.304 15.316 114.926 14.799 115.661 14.4149C116.585 13.9108 117.614 13.6587 118.749 13.6587C119.883 13.6587 120.902 13.9003 121.805 14.3834C122.708 14.8455 123.422 15.5177 123.948 16.3999C124.473 17.2822 124.735 18.3324 124.735 19.5507V29.1922H120.608V20.2124C120.608 19.3302 120.324 18.6475 119.757 18.1644C119.211 17.6603 118.528 17.4082 117.709 17.4082C117.184 17.4082 116.69 17.5237 116.228 17.7548C115.787 17.9648 115.44 18.2799 115.188 18.7C114.936 19.1201 114.81 19.6243 114.81 20.2124V29.1922H110.683V20.2124C110.683 19.3302 110.399 18.6475 109.832 18.1644C109.286 17.6603 108.603 17.4082 107.784 17.4082C107.238 17.4082 106.744 17.5237 106.303 17.7548C105.862 17.9648 105.515 18.2799 105.263 18.7C105.011 19.1201 104.885 19.6243 104.885 20.2124V29.1922H100.758Z" fill="#9C9C9C"/>
<path fill-rule="evenodd" clip-rule="evenodd" d="M129.53 28.499C130.77 29.1712 132.188 29.5073 133.784 29.5073C135.023 29.5073 136.168 29.2867 137.218 28.8456C138.29 28.4045 139.193 27.7533 139.928 26.8921L137.502 24.466C137.04 24.9911 136.494 25.3902 135.864 25.6633C135.233 25.9154 134.53 26.0414 133.752 26.0414C132.891 26.0414 132.135 25.8629 131.484 25.5058C130.833 25.1277 130.329 24.6025 129.972 23.9304C129.837 23.6534 129.73 23.3579 129.649 23.044L140.779 23.0166C140.863 22.6595 140.915 22.3445 140.936 22.0714C140.978 21.7773 140.999 21.4937 140.999 21.2207C140.999 19.7713 140.674 18.4795 140.023 17.3452C139.392 16.1899 138.51 15.2866 137.376 14.6355C136.263 13.9633 134.971 13.6272 133.5 13.6272C132.009 13.6272 130.654 13.9843 129.436 14.6985C128.218 15.3917 127.251 16.3369 126.537 17.5342C125.844 18.7105 125.497 20.0549 125.497 21.5673C125.497 23.1006 125.854 24.466 126.569 25.6633C127.304 26.8606 128.291 27.8059 129.53 28.499ZM129.653 19.9555C129.727 19.677 129.822 19.416 129.94 19.1726C130.276 18.5005 130.749 17.9858 131.358 17.6287C131.967 17.2506 132.681 17.0616 133.5 17.0616C134.278 17.0616 134.929 17.2296 135.454 17.5657C136 17.8808 136.41 18.3429 136.683 18.9521C136.824 19.2454 136.937 19.5727 137.02 19.9342L129.653 19.9555Z" fill="#9C9C9C"/>
<path fill-rule="evenodd" clip-rule="evenodd" d="M19.1713 38.3427C29.7594 38.3427 38.3427 29.7594 38.3427 19.1713C38.3427 8.5833 29.7594 0 19.1713 0C8.5833 0 0 8.5833 0 19.1713C0 29.7594 8.5833 38.3427 19.1713 38.3427ZM27.1108 7.43701C27.3384 7.62944 27.4694 7.91229 27.4694 8.21029L27.469 12.062L27.4694 12.3154L27.469 12.3457V25.2391C27.469 27.4783 25.6538 29.2935 23.4146 29.2935C21.1754 29.2935 19.3602 27.4783 19.3602 25.2391C19.3602 22.9999 21.1754 21.1845 23.4146 21.1845C24.1531 21.1845 24.8453 21.3821 25.4418 21.7271V13.5119L15.3054 15.2016V27.2663C15.3054 29.5055 13.4903 31.3206 11.2511 31.3206C9.01186 31.3206 7.1967 29.5055 7.1967 27.2663C7.1967 25.0271 9.01186 23.2117 11.2511 23.2117C11.9896 23.2117 12.6823 23.4092 13.2782 23.7542L13.2787 14.3426L13.2782 14.0892L13.2787 14.0589V10.2375C13.2787 9.74214 13.6368 9.3192 14.1259 9.23769L26.289 7.21051C26.583 7.16151 26.8837 7.24436 27.1108 7.43701Z" fill="#9C9C9C"/>
</svg>
