<svg width="50" height="50" viewBox="0 0 50 50" fill="none" xmlns="http://www.w3.org/2000/svg">
<g clip-path="url(#clip0_13_235)">
<path d="M20.0949 21.9352L26.791 30.4648C26.791 30.4648 25.5094 38.4617 20.8793 42.193C16.2493 45.9258 0.293945 44.8586 0.293945 44.8586C0.293945 44.8586 0.587328 43.0508 1.14321 40.5281L8.44843 31.7648C8.75494 31.3977 8.38126 30.857 7.93501 31.0227L3.27178 32.7484C4.38663 29.4938 5.79795 26.4953 7.48722 25.1336C12.1173 21.4023 20.0949 21.9352 20.0949 21.9352V21.9352ZM49.4378 7.42422L47.9045 5.4711C47.4806 4.93203 46.7063 4.84219 46.1743 5.2711L28.2255 19.1617L25.5897 15.8047C25.1967 15.3039 24.4208 15.3977 24.1544 15.9773L22.1988 20.2391L28.8949 28.7688L33.4346 27.7961C34.0522 27.6641 34.3163 26.9211 33.9241 26.4211L31.2921 23.068L49.2409 9.17735C49.7729 8.74922 49.8617 7.96406 49.4378 7.42422V7.42422Z" fill="#5C5C5C"/>
</g>
<defs>
<clipPath id="clip0_13_235">
<rect width="49.4118" height="50" fill="white" transform="translate(0.293945)"/>
</clipPath>
</defs>
</svg>
