<svg width="51" height="40" viewBox="0 0 51 40" fill="none" xmlns="http://www.w3.org/2000/svg">
<path d="M20.3102 20.4414C20.7961 20.9297 21.5837 20.9297 22.0696 20.4414L22.9489 19.5578C23.4348 19.0695 23.4348 18.2781 22.9489 17.7898L20.1718 15L22.9481 12.2094C23.4341 11.7211 23.4341 10.9297 22.9481 10.4414L22.0688 9.55781C21.5829 9.06953 20.7953 9.06953 20.3094 9.55781L15.7737 14.1156C15.2877 14.6039 15.2877 15.3953 15.7737 15.8836L20.3102 20.4414V20.4414ZM27.7747 19.5586L28.654 20.4422C29.1399 20.9305 29.9275 20.9305 30.4134 20.4422L34.9491 15.8844C35.4351 15.3961 35.4351 14.6047 34.9491 14.1164L30.4134 9.55859C29.9275 9.07031 29.1399 9.07031 28.654 9.55859L27.7747 10.4422C27.2887 10.9305 27.2887 11.7219 27.7747 12.2102L30.551 15L27.7747 17.7906C27.2887 18.2789 27.2887 19.0703 27.7747 19.5586V19.5586ZM48.9964 32.5H30.1459C30.0884 34.0477 29.0023 35 27.6005 35H22.8735C21.4204 35 20.3063 33.6352 20.3257 32.5H1.72637C1.0422 32.5 0.482422 33.0625 0.482422 33.75V35C0.482422 37.75 2.72153 40 5.45822 40H45.2646C48.0013 40 50.2404 37.75 50.2404 35V33.75C50.2404 33.0625 49.6806 32.5 48.9964 32.5ZM45.2646 3.75C45.2646 1.6875 43.5852 0 41.5327 0H9.19006C7.13755 0 5.45822 1.6875 5.45822 3.75V30H45.2646V3.75ZM40.2888 25H10.434V5H40.2888V25Z" fill="#5C5C5C"/>
</svg>
