<svg width="28" height="28" viewBox="0 0 28 28" fill="none" xmlns="http://www.w3.org/2000/svg">
<path fill-rule="evenodd" clip-rule="evenodd" d="M14.0304 2.33325C7.60321 2.33325 2.39404 7.54242 2.39404 13.9696C2.39404 19.1099 5.72721 23.4721 10.3519 25.0121C10.934 25.1171 11.144 24.7589 11.144 24.4509C11.144 24.1744 11.1347 23.4417 11.1312 22.4722C7.89371 23.1746 7.21004 20.9113 7.21004 20.9113C6.68271 19.5673 5.91854 19.2091 5.91854 19.2091C4.86271 18.4869 5.99904 18.5033 5.99904 18.5033C7.16804 18.5849 7.78054 19.7026 7.78054 19.7026C8.81888 21.4806 10.5059 20.9673 11.1662 20.6698C11.2724 19.9172 11.5757 19.4039 11.907 19.1134C9.32404 18.8206 6.60804 17.8219 6.60804 13.3618C6.60804 12.0936 7.06188 11.0529 7.80271 10.2409C7.68488 9.94575 7.28238 8.76159 7.91821 7.16092C7.91821 7.16092 8.89471 6.84708 11.1172 8.35209C12.0664 8.09387 13.0455 7.96206 14.0292 7.96008C15.0129 7.96168 15.9921 8.09349 16.9412 8.35209C19.1649 6.84592 20.1402 7.16092 20.1402 7.16092C20.776 8.76159 20.377 9.94575 20.2557 10.2409C21.0024 11.0529 21.4504 12.0924 21.4504 13.3618C21.4504 17.8336 18.732 18.8159 16.1397 19.1041C16.5539 19.4634 16.9272 20.1728 16.9272 21.2578C16.9272 22.8141 16.9132 24.0694 16.9132 24.4509C16.9132 24.7624 17.1209 25.1241 17.7147 25.0098C22.337 23.4674 25.6667 19.1088 25.6667 13.9696C25.6667 7.54242 20.4575 2.33325 14.0304 2.33325Z" fill="#9C9C9C"/>
</svg>
