<svg width="25" height="34" viewBox="0 0 25 34" fill="none" xmlns="http://www.w3.org/2000/svg">
<path d="M0.3 15.46C1.26 15.38 1.98 15.12 2.46 14.68C2.96 14.24 3.21 13.65 3.21 12.91C3.21 12.07 3.12 10.86 2.94 9.28C2.74 7.4 2.64 6.03 2.64 5.17C2.64 3.61 3.1 2.4 4.02 1.54C4.96 0.659999 6.2 0.219998 7.74 0.219998H9.81V3.76H8.55C7.31 3.76 6.69 4.35 6.69 5.53C6.69 6.09 6.77 7.21 6.93 8.89C6.95 9.09 7 9.66 7.08 10.6C7.16 11.52 7.2 12.34 7.2 13.06C7.2 14.12 6.94 15 6.42 15.7C5.9 16.4 5.11 16.85 4.05 17.05V17.11C5.11 17.33 5.9 17.79 6.42 18.49C6.94 19.17 7.2 20.05 7.2 21.13C7.2 21.81 7.16 22.62 7.08 23.56C7 24.48 6.95 25.06 6.93 25.3C6.77 26.98 6.69 28.09 6.69 28.63C6.69 29.25 6.84 29.7 7.14 29.98C7.44 30.26 7.91 30.4 8.55 30.4H9.81V33.97H7.74C6.2 33.97 4.96 33.53 4.02 32.65C3.1 31.79 2.64 30.58 2.64 29.02C2.64 28.14 2.74 26.76 2.94 24.88C3.12 23.3 3.21 22.1 3.21 21.28C3.21 20.54 2.96 19.95 2.46 19.51C1.98 19.07 1.26 18.81 0.3 18.73V15.46ZM24.1744 18.73C23.2144 18.81 22.4844 19.07 21.9844 19.51C21.5044 19.95 21.2644 20.54 21.2644 21.28C21.2644 22.1 21.3544 23.3 21.5344 24.88C21.7344 26.76 21.8344 28.14 21.8344 29.02C21.8344 30.58 21.3644 31.79 20.4244 32.65C19.5044 33.53 18.2744 33.97 16.7344 33.97H14.6644V30.4H15.9244C16.5644 30.4 17.0344 30.26 17.3344 29.98C17.6344 29.7 17.7844 29.25 17.7844 28.63C17.7844 28.09 17.7044 26.98 17.5444 25.3C17.5244 25.06 17.4744 24.48 17.3944 23.56C17.3144 22.62 17.2744 21.81 17.2744 21.13C17.2744 20.05 17.5344 19.17 18.0544 18.49C18.5744 17.79 19.3644 17.33 20.4244 17.11V17.05C19.3644 16.85 18.5744 16.4 18.0544 15.7C17.5344 15 17.2744 14.12 17.2744 13.06C17.2744 12.34 17.3144 11.52 17.3944 10.6C17.4744 9.66 17.5244 9.09 17.5444 8.89C17.7044 7.21 17.7844 6.09 17.7844 5.53C17.7844 4.35 17.1644 3.76 15.9244 3.76H14.6644V0.219998H16.7344C18.2744 0.219998 19.5044 0.659999 20.4244 1.54C21.3644 2.4 21.8344 3.61 21.8344 5.17C21.8344 6.03 21.7344 7.4 21.5344 9.28C21.3544 10.86 21.2644 12.07 21.2644 12.91C21.2644 13.65 21.5044 14.24 21.9844 14.68C22.4844 15.12 23.2144 15.38 24.1744 15.46V18.73Z" fill="#B08968"/>
</svg>
