<svg width="141" height="38" viewBox="0 0 141 38" fill="none" xmlns="http://www.w3.org/2000/svg">
<path d="M57.2889 34.9909C54.7824 34.9909 52.6463 34.5312 50.8804 33.6116C49.143 32.692 47.6477 31.4564 46.3945 29.9046L49.7269 26.7579C50.7807 28.0511 51.9343 29.0281 53.1875 29.6891C54.4691 30.35 55.9217 30.6805 57.5452 30.6805C59.4535 30.6805 60.8918 30.2494 61.8602 29.3873C62.8286 28.5252 63.3128 27.3614 63.3128 25.8958C63.3128 24.7176 62.971 23.7837 62.2874 23.094C61.6039 22.4044 60.3934 21.8871 58.656 21.5423L56.0072 21.0681C53.102 20.5221 50.9232 19.5594 49.4706 18.1801C48.018 16.8007 47.2917 14.9041 47.2917 12.4903C47.2917 11.1684 47.5338 9.97582 48.018 8.91257C48.5307 7.82058 49.2285 6.91538 50.1114 6.19697C51.0228 5.44982 52.1194 4.87509 53.4011 4.47278C54.6828 4.07047 56.1211 3.86931 57.7161 3.86931C59.9661 3.86931 61.9172 4.27162 63.5691 5.07625C65.2211 5.85213 66.6309 6.98722 67.7987 8.48152L64.4236 11.4989C63.6546 10.4931 62.7146 9.68845 61.6039 9.08499C60.4931 8.48152 59.1117 8.17979 57.4597 8.17979C55.7508 8.17979 54.4264 8.52463 53.4865 9.2143C52.5466 9.90398 52.0767 10.9098 52.0767 12.2316C52.0767 13.496 52.4612 14.4443 53.2302 15.0765C53.9992 15.68 55.1954 16.1398 56.8189 16.4559L59.4677 17.0163C62.4583 17.591 64.6372 18.568 66.0043 19.9474C67.3999 21.3267 68.0977 23.2233 68.0977 25.6372C68.0977 27.0453 67.8556 28.3241 67.3714 29.4735C66.8872 30.623 66.1752 31.6144 65.2353 32.4478C64.3239 33.2524 63.1988 33.8846 61.8602 34.3444C60.5215 34.7754 58.9978 34.9909 57.2889 34.9909Z" fill="#9C9C9C"/>
<path d="M80.0027 34.9909C78.4077 34.9909 76.9836 34.7179 75.7304 34.172C74.4772 33.626 73.4234 32.8501 72.5689 31.8443C71.7145 30.8098 71.0594 29.5741 70.6037 28.1373C70.148 26.6717 69.9201 25.0481 69.9201 23.2665C69.9201 21.4848 70.148 19.8755 70.6037 18.4387C71.0594 16.9732 71.7145 15.7375 72.5689 14.7317C73.4234 13.6972 74.4772 12.9069 75.7304 12.3609C76.9836 11.815 78.4077 11.542 80.0027 11.542C82.2243 11.542 84.0471 12.0448 85.4712 13.0506C86.8953 14.0564 87.9349 15.3927 88.59 17.0594L84.7449 18.8698C84.4316 17.8353 83.8762 17.0163 83.0787 16.4128C82.3097 15.7806 81.2844 15.4645 80.0027 15.4645C78.2938 15.4645 76.9979 16.0105 76.1149 17.1025C75.2605 18.1657 74.8332 19.5594 74.8332 21.2836V25.2924C74.8332 27.0166 75.2605 28.4247 76.1149 29.5166C76.9979 30.5799 78.2938 31.1115 80.0027 31.1115C81.3698 31.1115 82.4521 30.781 83.2496 30.1201C84.0756 29.4304 84.7307 28.5252 85.2149 27.4045L88.7609 29.3011C88.0204 31.1403 86.9096 32.5483 85.4285 33.5254C83.9474 34.5024 82.1388 34.9909 80.0027 34.9909Z" fill="#9C9C9C"/>
<path d="M107.335 34.4737C106.111 34.4737 105.171 34.1288 104.516 33.4392C103.861 32.7208 103.462 31.8156 103.319 30.7236H103.106C102.679 32.1317 101.895 33.1949 100.756 33.9133C99.6167 34.6317 98.2353 34.9909 96.6119 34.9909C94.3048 34.9909 92.5247 34.3875 91.2715 33.1805C90.0468 31.9736 89.4344 30.35 89.4344 28.3097C89.4344 26.0683 90.2319 24.3872 91.8269 23.2665C93.4504 22.1457 95.8144 21.5854 98.9189 21.5854H102.935V19.6888C102.935 18.3094 102.565 17.2462 101.824 16.499C101.084 15.7519 99.93 15.3783 98.3635 15.3783C97.0533 15.3783 95.9853 15.6656 95.1593 16.2404C94.3333 16.8151 93.6355 17.5479 93.0659 18.4387L90.2889 15.8955C91.0294 14.6311 92.069 13.5966 93.4077 12.792C94.7463 11.9586 96.4979 11.542 98.6626 11.542C101.539 11.542 103.747 12.2173 105.285 13.5679C106.823 14.9185 107.592 16.8582 107.592 19.387V30.6374H109.941V34.4737H107.335ZM97.9363 31.4132C99.3889 31.4132 100.585 31.0971 101.525 30.4649C102.465 29.804 102.935 28.9275 102.935 27.8356V24.6027H99.0043C95.7859 24.6027 94.1767 25.6085 94.1767 27.62V28.3959C94.1767 29.4017 94.5042 30.1632 95.1593 30.6805C95.8429 31.169 96.7685 31.4132 97.9363 31.4132Z" fill="#9C9C9C"/>
<path d="M117.111 34.4737C115.516 34.4737 114.32 34.0714 113.523 33.2668C112.754 32.4334 112.369 31.2839 112.369 29.8184V2.57617H117.026V30.6374H120.102V34.4737H117.111Z" fill="#9C9C9C"/>
<path d="M131.131 34.9909C129.536 34.9909 128.112 34.7179 126.859 34.172C125.606 33.626 124.538 32.8501 123.655 31.8443C122.772 30.8098 122.088 29.5741 121.604 28.1373C121.148 26.6717 120.92 25.0481 120.92 23.2665C120.92 21.4848 121.148 19.8755 121.604 18.4387C122.088 16.9732 122.772 15.7375 123.655 14.7317C124.538 13.6972 125.606 12.9069 126.859 12.3609C128.112 11.815 129.536 11.542 131.131 11.542C132.755 11.542 134.179 11.8293 135.404 12.4041C136.657 12.9788 137.696 13.7834 138.522 14.8179C139.348 15.8237 139.961 17.0019 140.359 18.3525C140.787 19.7031 141 21.1543 141 22.7061V24.4734H125.748V25.2062C125.748 26.9304 126.247 28.3528 127.243 29.4735C128.269 30.5655 129.721 31.1115 131.601 31.1115C132.968 31.1115 134.122 30.8098 135.062 30.2063C136.002 29.6028 136.799 28.7839 137.454 27.7493L140.188 30.4649C139.363 31.8443 138.166 32.9507 136.6 33.784C135.033 34.5886 133.21 34.9909 131.131 34.9909ZM131.131 15.2059C130.334 15.2059 129.593 15.3495 128.91 15.6369C128.255 15.9243 127.685 16.3266 127.201 16.8438C126.745 17.3611 126.389 17.9789 126.133 18.6973C125.876 19.4158 125.748 20.206 125.748 21.0681V21.3698H136.087V20.9388C136.087 19.2146 135.646 17.8353 134.763 16.8007C133.88 15.7375 132.669 15.2059 131.131 15.2059Z" fill="#9C9C9C"/>
<path d="M18.5125 0H0V38H36.3866V18.0339H32.5564V34.1356H3.83017V3.86441H18.5125V0Z" fill="#9C9C9C"/>
<path d="M22.981 3.86441H29.8484L12.7672 21.0983V14.1695H8.93705V27.6949H22.3426V23.8305H15.4758L32.5564 6.59725V13.5254H36.3866V0H22.981V3.86441Z" fill="#9C9C9C"/>
</svg>
