<svg width="141" height="38" viewBox="0 0 141 38" fill="none" xmlns="http://www.w3.org/2000/svg">
<path d="M46.0625 7.26589V2.66675H70.4714V7.26589H61.0496V34.4891H55.582V7.26589H46.0625Z" fill="#9C9C9C"/>
<path d="M85.4226 30.308L86.7895 30.1687L86.8871 33.9316C83.177 34.6439 79.8899 35.0001 77.026 35.0001C73.4134 35.0001 70.8098 34.0555 69.2151 32.1663C67.6529 30.2771 66.8718 27.2574 66.8718 23.1074C66.8718 14.8692 70.403 10.7501 77.4653 10.7501C84.2998 10.7501 87.717 14.2962 87.717 21.3885L87.3753 25.0121H72.2418C72.2744 26.9322 72.7137 28.3414 73.5599 29.2395C74.4061 30.1377 75.9845 30.5868 78.2952 30.5868C80.6059 30.5868 82.9817 30.4939 85.4226 30.308ZM82.4935 21.1098C82.4935 18.8179 82.103 17.2229 81.3219 16.3248C80.5734 15.3957 79.2878 14.9311 77.4653 14.9311C75.6428 14.9311 74.3084 15.4112 73.4623 16.3713C72.6486 17.3313 72.2255 18.9108 72.193 21.1098H82.4935Z" fill="#9C9C9C"/>
<path d="M90.3929 34.4891V11.2611H95.6652V14.0485C98.4315 12.3451 101.198 11.2456 103.964 10.7501V15.8138C101.165 16.3403 98.7733 17.0216 96.788 17.8578L95.714 18.2759V34.4891H90.3929Z" fill="#9C9C9C"/>
<path d="M105.591 34.4891V11.2611H110.864V14.0485C113.63 12.3451 116.396 11.2456 119.163 10.7501V15.8138C116.364 16.3403 113.972 17.0216 111.986 17.8578L110.912 18.2759V34.4891H105.591Z" fill="#9C9C9C"/>
<path d="M138.852 18.4153V29.0073C138.885 29.6886 139.064 30.1996 139.389 30.5403C139.747 30.85 140.284 31.0513 141 31.1442L140.854 35.0001C138.055 35.0001 135.891 34.4271 134.361 33.2812C131.757 34.4271 129.137 35.0001 126.501 35.0001C121.652 35.0001 119.227 32.5379 119.227 27.6136C119.227 25.2598 119.878 23.5564 121.18 22.5034C122.514 21.4504 124.549 20.8155 127.282 20.5987L133.58 20.0877V18.4153C133.58 17.1765 133.287 16.3093 132.701 15.8138C132.148 15.3182 131.318 15.0705 130.211 15.0705C128.129 15.0705 125.525 15.1944 122.401 15.4421L120.838 15.535L120.643 11.9579C124.191 11.1527 127.445 10.7501 130.407 10.7501C133.401 10.7501 135.549 11.3695 136.851 12.6083C138.185 13.8162 138.852 15.7518 138.852 18.4153ZM127.917 24.1758C125.671 24.3617 124.549 25.5231 124.549 27.66C124.549 29.797 125.541 30.8655 127.526 30.8655C129.154 30.8655 130.879 30.6177 132.701 30.1222L133.58 29.8435V23.6648L127.917 24.1758Z" fill="#9C9C9C"/>
<path fill-rule="evenodd" clip-rule="evenodd" d="M31.2943 0C35.5423 0 39.0865 2.85652 39.9062 6.65388C40.0233 7.19636 40.0848 7.75804 40.0848 8.33333V29.6667C40.0848 34.269 36.1491 38 31.2943 38H8.79052C7.82939 38 6.90429 37.8538 6.03862 37.5835C2.5316 36.4886 0 33.3579 0 29.6667V8.33333C0 3.73096 3.93565 0 8.79052 0H31.2943ZM27.7289 2.66667H31.2943C34.2075 2.66667 36.634 4.64232 37.1642 7.2574C35.4723 7.43911 33.5386 7.27072 31.4965 6.44108C29.6869 5.70584 28.4865 4.34368 27.7289 2.66667ZM19.3825 2.66667H24.7253C25.6129 5.19984 27.3135 7.64286 30.3885 8.89214C32.855 9.89426 35.1976 10.1267 37.2718 9.93145V12.6562C34.4556 13.5014 31.6493 13.8434 29.4037 13.2204C28.2884 12.9109 27.0087 12.0893 25.6315 10.7967C24.2731 9.5219 22.9177 7.88226 21.6377 6.09001C20.8423 4.97622 20.0849 3.81602 19.3825 2.66667ZM16.1518 2.66667H12.4295C12.5992 5.68422 11.8492 9.37005 9.05922 13.104C7.21079 15.5778 5.02497 16.9385 2.81297 17.5462V22.8623C4.14584 22.0949 5.71495 21.0469 7.55207 19.6319C11.8928 16.2885 15.3117 14.9582 17.9041 14.7149C20.4816 14.473 22.3137 15.3205 23.1209 16.3918C23.9682 17.5163 24.4472 19.0233 24.6275 20.6127C24.8099 22.2214 24.6987 24.0156 24.2707 25.7963C23.4199 29.3363 21.2601 33.0211 17.3689 35.0074C17.157 35.1155 16.9432 35.2242 16.7277 35.3333H21.1C22.8101 33.2754 24.1784 31.2307 24.6692 29.6282C25.2231 27.8195 25.4505 25.9018 25.6631 24.1089L25.6632 24.1086L25.6632 24.1082C25.7396 23.4642 25.8141 22.8363 25.9011 22.2354C26.0519 21.1939 26.2599 20.0906 26.707 19.295C26.9436 18.874 27.3194 18.4052 27.9243 18.1346C28.5612 17.8498 29.2238 17.8847 29.805 18.0684C31.4344 18.5833 33.6004 18.6899 37.2718 17.8182V15.4395C34.4406 16.1958 31.3535 16.5399 28.6136 15.7797C26.8456 15.2891 25.1673 14.1135 23.6524 12.6918C22.1187 11.2524 20.648 9.46081 19.3084 7.585C18.1625 5.98048 17.0958 4.29064 16.1518 2.66667ZM37.2718 20.5607C33.7742 21.3197 31.259 21.288 29.1318 20.6641C28.9746 21.013 28.8278 21.6318 28.6879 22.598C28.6184 23.0779 28.5539 23.6235 28.4842 24.2135L28.4841 24.214C28.2667 26.0527 27.9984 28.3217 27.3706 30.3717C26.8894 31.9431 25.8487 33.6692 24.6115 35.3333H27.4416C27.9635 34.1028 28.4444 32.9308 28.8219 31.9456C29.2276 30.8871 29.4818 30.1258 29.5635 29.7384C29.7187 29.0026 30.0145 28.2111 30.708 27.6499C31.4295 27.066 32.3156 26.9408 33.1458 26.9808C33.9633 27.0202 34.9218 27.2289 36.0032 27.5229C36.3963 27.6298 36.8189 27.7518 37.2718 27.8873V20.5607ZM37.1803 30.6597C36.4461 30.4337 35.8 30.2419 35.2276 30.0862C34.1828 29.8021 33.4821 29.6671 33.003 29.644C32.6936 29.6291 32.5684 29.6652 32.5324 29.6804C32.5123 29.703 32.4124 29.8321 32.3218 30.2614C32.1926 30.874 31.8652 31.8141 31.4658 32.8562C31.1791 33.6044 30.8384 34.4478 30.4697 35.3333H31.2943C34.2382 35.3333 36.6851 33.3158 37.1803 30.6597ZM10.6582 35.3333C12.5004 34.4327 14.3597 33.5147 16.0353 32.6594C19.0007 31.1457 20.7966 28.2472 21.5281 25.2039C21.8912 23.6929 21.9778 22.1954 21.8306 20.8978C21.6813 19.581 21.3032 18.5672 20.8319 17.9417C20.76 17.8463 20.0429 17.1939 18.1812 17.3686C16.3344 17.5419 13.4241 18.545 9.32591 21.7016C6.76053 23.6775 4.61366 25.0314 2.81297 25.9264V28.9338C3.25687 28.5487 3.75811 28.2271 4.22132 27.9526C4.69325 27.673 5.20746 27.398 5.71279 27.1294L5.83804 27.0628C6.31011 26.812 6.77863 26.563 7.24388 26.2989C8.26167 25.721 9.17684 25.1174 9.88053 24.4151C11.0989 23.1991 12.8574 21.7478 14.5107 20.7572C15.3264 20.2685 16.2072 19.8361 17.0383 19.6377C17.8182 19.4514 19.0277 19.3756 19.8704 20.2889C20.6723 21.1579 21.0047 22.4614 20.4205 24.1531C19.8657 25.7599 18.4722 27.7888 15.7788 30.4273C12.983 33.166 10.187 34.538 7.82982 34.9752C7.56397 35.0245 7.30245 35.0621 7.04618 35.0883C7.59801 35.2476 8.18371 35.3333 8.79052 35.3333H10.6582ZM2.81297 14.7246C4.17583 14.1888 5.53358 13.209 6.76376 11.5626C9.19284 8.31169 9.77981 5.15938 9.61266 2.66667H8.79052C5.48921 2.66667 2.81297 5.20372 2.81297 8.33333V14.7246ZM32.5297 29.6816C32.5231 29.6846 32.5204 29.6865 32.5207 29.6868C32.5209 29.6869 32.5224 29.6863 32.5249 29.6848L32.5267 29.6837L32.5297 29.6816ZM16.0137 23.0113C14.5972 23.8601 13.0151 25.1587 11.92 26.2516C10.9537 27.216 9.78122 27.9666 8.68928 28.5866C8.18746 28.8715 7.68428 29.1388 7.21786 29.3866L7.08868 29.4553C6.57758 29.727 6.11929 29.9728 5.71211 30.214C4.83414 30.7342 4.4671 31.0838 4.35206 31.3078C4.31908 31.3719 4.31515 31.4087 4.32532 31.4648C4.33979 31.5446 4.40034 31.7288 4.64122 32.0333L4.66464 32.0629L4.68631 32.0937C4.68766 32.0955 4.71933 32.1369 4.81999 32.1953C4.92396 32.2556 5.08491 32.3238 5.3135 32.3771C5.77288 32.4843 6.44161 32.5154 7.28973 32.3581C8.97626 32.0453 11.2789 31.0007 13.7574 28.5728C16.3383 26.0446 17.388 24.3635 17.7471 23.3235C17.9609 22.7044 17.9172 22.369 17.8488 22.1977C17.8145 22.2037 17.7737 22.212 17.7255 22.2235C17.3193 22.3205 16.733 22.5803 16.0137 23.0113ZM18.0001 22.1852C17.9995 22.1859 17.9911 22.1859 17.9768 22.1833C17.9936 22.1831 18.0007 22.1845 18.0001 22.1852Z" fill="#9C9C9C"/>
</svg>
