<svg width="28" height="28" viewBox="0 0 28 28" fill="none" xmlns="http://www.w3.org/2000/svg">
<path d="M22.9053 9.32972C22.9205 9.53389 22.9205 9.73689 22.9205 9.93989C22.9205 16.1524 18.192 23.3111 9.5505 23.3111C6.88816 23.3111 4.41483 22.5399 2.3335 21.2006C2.7115 21.2437 3.0755 21.2589 3.46866 21.2589C5.58382 21.264 7.63908 20.5567 9.30316 19.2511C8.32249 19.2333 7.37183 18.9098 6.58394 18.3256C5.79605 17.7414 5.21024 16.9258 4.90833 15.9926C5.19883 16.0357 5.4905 16.0649 5.79616 16.0649C6.21733 16.0649 6.64083 16.0066 7.034 15.9051C5.96972 15.6902 5.01272 15.1133 4.32572 14.2725C3.63872 13.4317 3.26414 12.379 3.26566 11.2932V11.2349C3.89216 11.5837 4.619 11.8019 5.389 11.8311C4.74393 11.4024 4.215 10.8207 3.84939 10.138C3.48378 9.45521 3.29286 8.69255 3.29366 7.91805C3.29366 7.04539 3.52583 6.24505 3.933 5.54739C5.11382 6.99991 6.58658 8.18821 8.25589 9.03532C9.92519 9.88244 11.7538 10.3695 13.6233 10.4649C13.551 10.1149 13.5067 9.75205 13.5067 9.38805C13.5064 8.77084 13.6277 8.15962 13.8638 7.58933C14.0998 7.01905 14.4459 6.50087 14.8824 6.06444C15.3188 5.62801 15.837 5.28187 16.4073 5.04581C16.9776 4.80976 17.5888 4.68841 18.206 4.68872C19.5593 4.68872 20.7808 5.25572 21.6395 6.17272C22.6916 5.96927 23.7005 5.58521 24.6215 5.03755C24.2708 6.12351 23.5362 7.04434 22.5553 7.62755C23.4884 7.52113 24.4003 7.27575 25.2608 6.89955C24.6181 7.8365 23.8218 8.65812 22.9053 9.32972Z" fill="#9C9C9C"/>
</svg>
